<?xml version="1.0" encoding="utf-8"?>
<!-- Generator: Adobe Illustrator 15.1.0, SVG Export Plug-In . SVG Version: 6.00 Build 0)  -->
<!DOCTYPE svg PUBLIC "-//W3C//DTD SVG 1.1//EN" "http://www.w3.org/Graphics/SVG/1.1/DTD/svg11.dtd">
<svg version="1.1" id="Ebene_1" xmlns="http://www.w3.org/2000/svg" xmlns:xlink="http://www.w3.org/1999/xlink" x="0px" y="0px"
	 width="500px" height="120px" viewBox="0 0 500 120" enable-background="new 0 0 500 120" xml:space="preserve">
<g>
	<defs>
		<polygon id="SVGID_1_" points="7,114 506.672,115 506.672,-3.522 7,-4.522 		"/>
	</defs>
	<clipPath id="SVGID_2_">
		<use xlink:href="#SVGID_1_"  overflow="visible"/>
	</clipPath>
	<path clip-path="url(#SVGID_2_)" fill="#66CC66" d="M492.031,59.528c-10.97-0.748-11.344-6.607-11.344-11.344
		c0-7.605,0.997-16.58,0.997-25.556c0-14.461-10.473-16.081-18.201-16.081v3.49c9.101,1.247,10.597,5.859,10.597,11.594
		c-0.125,7.978-1.746,16.954-1.746,25.057c0,6.732,2.992,12.591,10.473,14.336v0.499c-7.604,1.87-10.473,7.729-10.473,14.585
		c0.125,7.978,1.746,16.829,1.746,24.683c0,5.61-1.496,10.473-10.597,11.718V116c7.604,0,18.201-2.12,18.201-15.957
		c0-9.1-0.997-18.076-0.997-25.556c0-4.737,0.374-10.596,11.344-11.344V59.528z"/>
</g>
<g>
	<path fill="#66C569" d="M140.019,65.948c0,1.361-0.254,2.556-0.761,3.583c-0.507,1.028-1.195,1.886-2.062,2.573
		c-0.868,0.688-1.882,1.204-3.043,1.552c-1.161,0.347-2.402,0.52-3.724,0.52c-0.895,0-1.725-0.073-2.493-0.22
		c-0.768-0.147-1.445-0.323-2.032-0.53c-0.587-0.207-1.078-0.424-1.471-0.65c-0.394-0.228-0.678-0.428-0.851-0.602
		c-0.174-0.173-0.297-0.423-0.371-0.75s-0.11-0.798-0.11-1.412c0-0.413,0.013-0.76,0.04-1.041c0.026-0.279,0.07-0.507,0.13-0.68
		c0.06-0.174,0.14-0.297,0.24-0.371c0.1-0.073,0.216-0.109,0.35-0.109c0.187,0,0.451,0.109,0.791,0.33
		c0.341,0.22,0.777,0.464,1.312,0.73c0.534,0.268,1.171,0.511,1.912,0.73c0.74,0.221,1.598,0.33,2.572,0.33
		c0.641,0,1.214-0.076,1.722-0.229c0.507-0.153,0.938-0.37,1.291-0.651c0.354-0.279,0.624-0.627,0.811-1.041
		c0.187-0.413,0.28-0.873,0.28-1.381c0-0.587-0.16-1.091-0.48-1.512c-0.32-0.42-0.738-0.794-1.251-1.121
		c-0.514-0.326-1.098-0.634-1.751-0.921c-0.654-0.286-1.328-0.591-2.022-0.911c-0.694-0.32-1.368-0.684-2.022-1.091
		c-0.654-0.406-1.238-0.894-1.751-1.461c-0.514-0.567-0.931-1.238-1.251-2.013c-0.32-0.773-0.48-1.701-0.48-2.782
		c0-1.241,0.23-2.332,0.691-3.273c0.46-0.94,1.081-1.722,1.861-2.342c0.781-0.621,1.702-1.084,2.763-1.392
		c1.062-0.307,2.186-0.46,3.374-0.46c0.614,0,1.228,0.047,1.842,0.14c0.614,0.094,1.188,0.22,1.722,0.38
		c0.534,0.16,1.007,0.34,1.421,0.541c0.414,0.2,0.687,0.367,0.821,0.5c0.133,0.134,0.223,0.247,0.27,0.34
		c0.047,0.094,0.087,0.217,0.12,0.37c0.033,0.154,0.057,0.348,0.07,0.581c0.013,0.233,0.02,0.524,0.02,0.871
		c0,0.387-0.01,0.714-0.03,0.981c-0.021,0.267-0.054,0.487-0.101,0.661c-0.047,0.174-0.113,0.3-0.2,0.38s-0.204,0.12-0.35,0.12
		c-0.147,0-0.38-0.093-0.701-0.28c-0.32-0.187-0.714-0.391-1.181-0.61c-0.467-0.221-1.008-0.421-1.622-0.601
		c-0.614-0.181-1.288-0.271-2.022-0.271c-0.574,0-1.075,0.07-1.501,0.21c-0.427,0.141-0.784,0.334-1.071,0.581
		s-0.5,0.544-0.641,0.891c-0.14,0.347-0.21,0.714-0.21,1.101c0,0.574,0.157,1.071,0.471,1.492c0.313,0.42,0.733,0.794,1.261,1.121
		s1.125,0.634,1.792,0.921c0.667,0.287,1.348,0.591,2.042,0.911c0.694,0.32,1.375,0.684,2.042,1.091
		c0.667,0.407,1.261,0.895,1.782,1.461c0.521,0.567,0.941,1.235,1.261,2.002C139.858,64.003,140.019,64.907,140.019,65.948z"/>
	<path fill="#66C569" d="M167.714,60.463c0,2.149-0.267,4.071-0.801,5.766c-0.534,1.695-1.328,3.133-2.382,4.314
		c-1.055,1.181-2.359,2.082-3.914,2.702c-1.555,0.621-3.353,0.931-5.395,0.931c-2.016,0-3.774-0.264-5.275-0.79
		c-1.502-0.527-2.753-1.331-3.754-2.413c-1.001-1.08-1.752-2.455-2.252-4.123c-0.501-1.669-0.751-3.645-0.751-5.926
		c0-2.096,0.267-3.98,0.801-5.656c0.534-1.674,1.328-3.099,2.382-4.274c1.054-1.174,2.359-2.075,3.914-2.703
		c1.555-0.627,3.36-0.941,5.416-0.941c1.962,0,3.694,0.26,5.195,0.781c1.502,0.521,2.756,1.321,3.764,2.402s1.769,2.446,2.282,4.094
		C167.457,56.275,167.714,58.221,167.714,60.463z M162.189,60.743c0-1.361-0.107-2.599-0.32-3.714
		c-0.214-1.114-0.578-2.068-1.091-2.862s-1.198-1.408-2.052-1.842c-0.854-0.434-1.922-0.651-3.203-0.651
		c-1.295,0-2.376,0.244-3.243,0.731c-0.868,0.487-1.568,1.138-2.102,1.952c-0.534,0.814-0.911,1.765-1.131,2.853
		c-0.22,1.088-0.33,2.239-0.33,3.453c0,1.415,0.106,2.687,0.32,3.813c0.213,1.128,0.574,2.092,1.081,2.893
		c0.507,0.801,1.188,1.412,2.042,1.832c0.854,0.421,1.928,0.631,3.223,0.631c1.294,0,2.375-0.24,3.243-0.721
		c0.867-0.48,1.568-1.134,2.102-1.962c0.534-0.827,0.911-1.792,1.131-2.893C162.079,63.155,162.189,61.984,162.189,60.743z"/>
	<path fill="#66C569" d="M187,49.973c0,0.4-0.017,0.738-0.05,1.011c-0.033,0.274-0.087,0.491-0.16,0.651s-0.157,0.28-0.25,0.36
		c-0.094,0.08-0.2,0.12-0.32,0.12h-8.468v6.967h7.948c0.12,0,0.227,0.033,0.32,0.1c0.093,0.067,0.177,0.18,0.25,0.34
		s0.127,0.374,0.16,0.641c0.033,0.268,0.05,0.602,0.05,1.002s-0.017,0.733-0.05,1c-0.033,0.268-0.087,0.488-0.16,0.661
		c-0.073,0.174-0.157,0.297-0.25,0.37c-0.094,0.074-0.2,0.11-0.32,0.11h-7.948v9.649c0,0.147-0.04,0.273-0.12,0.381
		c-0.08,0.106-0.224,0.196-0.43,0.27c-0.208,0.074-0.478,0.131-0.811,0.17c-0.334,0.041-0.761,0.061-1.281,0.061
		c-0.507,0-0.931-0.02-1.271-0.061c-0.341-0.039-0.611-0.096-0.811-0.17c-0.2-0.073-0.344-0.163-0.43-0.27
		c-0.087-0.107-0.13-0.233-0.13-0.381V49.472c0-0.587,0.15-1.011,0.451-1.271c0.3-0.261,0.67-0.391,1.111-0.391h12.192
		c0.12,0,0.227,0.037,0.32,0.11c0.093,0.073,0.177,0.193,0.25,0.36s0.127,0.39,0.16,0.67S187,49.572,187,49.973z"/>
	<path fill="#66C569" d="M208.891,49.973c0,0.387-0.017,0.718-0.05,0.991c-0.034,0.273-0.084,0.494-0.15,0.66
		c-0.067,0.167-0.15,0.291-0.25,0.371c-0.101,0.08-0.21,0.12-0.331,0.12h-6.486v20.88c0,0.134-0.043,0.254-0.13,0.36
		c-0.087,0.107-0.23,0.193-0.43,0.26c-0.2,0.067-0.47,0.121-0.811,0.16c-0.34,0.041-0.764,0.061-1.271,0.061
		c-0.507,0-0.931-0.02-1.271-0.061c-0.341-0.039-0.611-0.093-0.811-0.16c-0.2-0.066-0.344-0.152-0.43-0.26
		c-0.087-0.106-0.13-0.227-0.13-0.36v-20.88h-6.486c-0.134,0-0.247-0.04-0.34-0.12c-0.094-0.08-0.174-0.203-0.24-0.371
		c-0.067-0.167-0.117-0.387-0.15-0.66s-0.05-0.604-0.05-0.991c0-0.4,0.017-0.741,0.05-1.021s0.083-0.503,0.15-0.67
		c0.066-0.167,0.146-0.287,0.24-0.36c0.093-0.073,0.207-0.11,0.34-0.11h18.258c0.12,0,0.23,0.037,0.331,0.11
		c0.1,0.073,0.183,0.193,0.25,0.36c0.066,0.167,0.117,0.39,0.15,0.67C208.874,49.232,208.891,49.572,208.891,49.973z"/>
	<path fill="#66C569" d="M239.548,72.375c-0.08,0.32-0.19,0.577-0.331,0.771c-0.14,0.193-0.35,0.34-0.63,0.44
		c-0.28,0.1-0.641,0.166-1.081,0.2c-0.44,0.033-1.001,0.05-1.682,0.05c-0.761,0-1.372-0.017-1.832-0.05
		c-0.461-0.034-0.825-0.101-1.091-0.2c-0.267-0.101-0.46-0.247-0.581-0.44s-0.214-0.45-0.28-0.771l-4.144-16.417h-0.04
		l-3.924,16.417c-0.067,0.307-0.16,0.557-0.28,0.75c-0.12,0.194-0.31,0.344-0.571,0.451c-0.26,0.106-0.614,0.176-1.061,0.21
		c-0.448,0.033-1.038,0.05-1.772,0.05c-0.774,0-1.391-0.017-1.852-0.05c-0.46-0.034-0.824-0.101-1.091-0.2
		c-0.267-0.101-0.46-0.247-0.581-0.44s-0.22-0.45-0.3-0.771l-5.886-22.603c-0.12-0.48-0.187-0.857-0.2-1.131
		c-0.014-0.273,0.063-0.484,0.23-0.631c0.167-0.146,0.44-0.237,0.82-0.271c0.381-0.033,0.911-0.05,1.592-0.05
		c0.627,0,1.124,0.01,1.491,0.03c0.367,0.02,0.644,0.067,0.831,0.14c0.187,0.074,0.313,0.181,0.38,0.32
		c0.066,0.141,0.12,0.337,0.16,0.591l4.544,19.84h0.02l4.725-19.7c0.053-0.253,0.123-0.46,0.21-0.621
		c0.086-0.16,0.233-0.283,0.44-0.37c0.207-0.087,0.49-0.147,0.851-0.181c0.36-0.033,0.841-0.05,1.441-0.05
		c0.641,0,1.151,0.014,1.531,0.04c0.381,0.027,0.674,0.083,0.881,0.17c0.207,0.087,0.357,0.21,0.451,0.371
		c0.093,0.16,0.167,0.374,0.22,0.641l4.885,19.7h0.04l4.544-19.78c0.04-0.213,0.093-0.397,0.16-0.55
		c0.066-0.153,0.193-0.273,0.38-0.36c0.187-0.087,0.454-0.147,0.801-0.181c0.347-0.033,0.834-0.05,1.461-0.05
		c0.587,0,1.044,0.017,1.372,0.05c0.327,0.034,0.563,0.124,0.71,0.271c0.146,0.147,0.21,0.364,0.19,0.65
		c-0.02,0.288-0.09,0.678-0.21,1.171L239.548,72.375z"/>
	<path fill="#66C569" d="M269.101,71.754c0.16,0.48,0.261,0.861,0.3,1.141c0.041,0.281-0.013,0.491-0.16,0.631
		c-0.146,0.141-0.407,0.227-0.78,0.261c-0.374,0.033-0.888,0.05-1.542,0.05c-0.68,0-1.211-0.01-1.591-0.03
		c-0.381-0.02-0.671-0.06-0.871-0.12c-0.2-0.06-0.341-0.143-0.421-0.25c-0.08-0.106-0.146-0.247-0.199-0.42l-1.742-5.205h-9.729
		l-1.642,5.064c-0.054,0.188-0.124,0.344-0.21,0.471c-0.087,0.127-0.228,0.227-0.421,0.3s-0.467,0.123-0.82,0.15
		c-0.354,0.026-0.818,0.04-1.392,0.04c-0.614,0-1.095-0.02-1.441-0.061c-0.347-0.039-0.587-0.136-0.721-0.29
		c-0.134-0.153-0.18-0.37-0.14-0.65s0.14-0.653,0.3-1.121l7.987-22.982c0.08-0.227,0.174-0.41,0.281-0.551
		c0.105-0.14,0.276-0.247,0.51-0.32c0.233-0.073,0.557-0.12,0.971-0.14c0.414-0.021,0.961-0.03,1.643-0.03
		c0.787,0,1.414,0.01,1.881,0.03c0.468,0.02,0.831,0.067,1.092,0.14c0.26,0.074,0.446,0.184,0.561,0.331
		c0.113,0.147,0.21,0.347,0.29,0.601L269.101,71.754z M257.209,52.755h-0.02l-3.664,11.01h7.348L257.209,52.755z"/>
	<path fill="#66C569" d="M292.313,73.035c0,0.147-0.027,0.271-0.08,0.37c-0.054,0.101-0.181,0.184-0.381,0.251
		c-0.2,0.066-0.494,0.112-0.881,0.14c-0.388,0.026-0.914,0.04-1.582,0.04c-0.561,0-1.008-0.014-1.341-0.04
		c-0.334-0.027-0.598-0.077-0.791-0.15s-0.33-0.166-0.41-0.28c-0.08-0.113-0.147-0.25-0.2-0.41l-2.322-5.785
		c-0.28-0.654-0.554-1.234-0.82-1.742c-0.268-0.507-0.564-0.931-0.892-1.271c-0.327-0.34-0.704-0.597-1.131-0.771
		c-0.428-0.173-0.921-0.261-1.481-0.261h-1.642v9.87c0,0.134-0.044,0.254-0.13,0.36c-0.087,0.107-0.23,0.193-0.431,0.26
		c-0.2,0.067-0.468,0.121-0.801,0.16c-0.334,0.041-0.761,0.061-1.281,0.061c-0.508,0-0.931-0.02-1.271-0.061
		c-0.34-0.039-0.61-0.093-0.811-0.16c-0.2-0.066-0.341-0.152-0.421-0.26c-0.08-0.106-0.119-0.227-0.119-0.36V49.472
		c0-0.587,0.149-1.011,0.45-1.271c0.3-0.261,0.671-0.391,1.11-0.391h6.707c0.681,0,1.241,0.014,1.682,0.04
		c0.44,0.027,0.841,0.06,1.201,0.1c1.041,0.147,1.979,0.4,2.813,0.761s1.542,0.831,2.122,1.412c0.581,0.58,1.024,1.268,1.331,2.062
		c0.308,0.794,0.461,1.706,0.461,2.733c0,0.868-0.11,1.659-0.33,2.373c-0.221,0.714-0.544,1.351-0.971,1.911
		c-0.428,0.561-0.955,1.049-1.582,1.462c-0.628,0.414-1.342,0.748-2.143,1.001c0.388,0.188,0.751,0.414,1.092,0.681
		c0.34,0.268,0.66,0.591,0.961,0.971c0.3,0.381,0.583,0.814,0.851,1.302c0.267,0.487,0.527,1.038,0.78,1.651l2.183,5.104
		c0.2,0.508,0.333,0.878,0.4,1.111C292.278,72.719,292.313,72.902,292.313,73.035z M285.525,55.458c0-0.854-0.193-1.575-0.58-2.162
		c-0.388-0.587-1.021-1.001-1.902-1.241c-0.268-0.066-0.57-0.12-0.911-0.16c-0.34-0.04-0.811-0.06-1.411-0.06h-2.362v7.347h2.683
		c0.747,0,1.401-0.09,1.962-0.271c0.561-0.18,1.027-0.434,1.401-0.761c0.373-0.326,0.653-0.717,0.841-1.171
		C285.432,56.526,285.525,56.019,285.525,55.458z"/>
</g>
<g>
	<path fill="#66C569" d="M311.973,71.654c0,0.387-0.017,0.71-0.05,0.971c-0.034,0.26-0.084,0.471-0.15,0.631
		c-0.067,0.16-0.15,0.276-0.25,0.35c-0.101,0.074-0.21,0.11-0.331,0.11H298.18c-0.441,0-0.812-0.13-1.111-0.391
		c-0.301-0.26-0.451-0.684-0.451-1.271V49.472c0-0.587,0.15-1.011,0.451-1.271c0.3-0.261,0.67-0.391,1.111-0.391h12.932
		c0.121,0,0.228,0.034,0.32,0.1c0.094,0.067,0.174,0.184,0.24,0.35c0.067,0.167,0.117,0.381,0.15,0.641
		c0.033,0.261,0.051,0.591,0.051,0.991c0,0.374-0.018,0.69-0.051,0.951c-0.033,0.26-0.083,0.47-0.15,0.63
		c-0.066,0.16-0.146,0.277-0.24,0.35c-0.093,0.074-0.199,0.11-0.32,0.11h-9.248v6.326h7.827c0.12,0,0.23,0.037,0.33,0.11
		c0.101,0.073,0.184,0.187,0.251,0.34c0.066,0.154,0.116,0.36,0.149,0.621c0.033,0.26,0.05,0.577,0.05,0.951
		c0,0.387-0.017,0.707-0.05,0.961c-0.033,0.253-0.083,0.457-0.149,0.61c-0.067,0.153-0.15,0.264-0.251,0.33
		c-0.1,0.067-0.21,0.101-0.33,0.101h-7.827v7.307h9.328c0.121,0,0.23,0.037,0.331,0.11c0.1,0.073,0.183,0.19,0.25,0.351
		c0.066,0.16,0.116,0.37,0.15,0.63C311.956,70.943,311.973,71.267,311.973,71.654z"/>
	<path fill="#66C569" d="M323.065,66.488c0-0.747,0.11-1.451,0.33-2.111c0.221-0.661,0.551-1.284,0.991-1.872
		c0.44-0.587,0.984-1.147,1.632-1.682c0.646-0.533,1.397-1.054,2.252-1.562c-0.48-0.613-0.897-1.191-1.251-1.731
		c-0.354-0.541-0.647-1.058-0.881-1.552c-0.234-0.494-0.407-0.964-0.521-1.411c-0.114-0.447-0.171-0.891-0.171-1.332
		c0-0.934,0.167-1.812,0.501-2.632c0.333-0.821,0.854-1.532,1.562-2.132c0.707-0.601,1.608-1.078,2.703-1.431
		c1.094-0.354,2.408-0.531,3.943-0.531c1.401,0,2.609,0.134,3.623,0.4c1.015,0.267,1.849,0.644,2.503,1.131
		c0.653,0.487,1.142,1.088,1.462,1.802s0.48,1.518,0.48,2.412c0,0.801-0.138,1.542-0.411,2.222s-0.688,1.328-1.241,1.942
		c-0.554,0.614-1.244,1.205-2.072,1.771c-0.827,0.567-1.795,1.139-2.902,1.712c0.36,0.414,0.764,0.851,1.211,1.312
		c0.447,0.46,0.907,0.921,1.382,1.381c0.474,0.461,0.95,0.918,1.431,1.372c0.48,0.453,0.948,0.874,1.402,1.261
		c0.173-0.267,0.33-0.573,0.47-0.921c0.141-0.347,0.261-0.714,0.36-1.102c0.101-0.387,0.181-0.78,0.24-1.181
		c0.061-0.4,0.09-0.794,0.09-1.181v-0.621c0-0.146,0.027-0.273,0.08-0.381c0.054-0.106,0.164-0.192,0.331-0.26
		c0.166-0.066,0.406-0.116,0.721-0.15c0.313-0.033,0.717-0.05,1.211-0.05c0.467,0,0.854,0.01,1.161,0.03
		c0.307,0.02,0.551,0.063,0.73,0.13c0.181,0.067,0.307,0.157,0.381,0.271c0.073,0.113,0.109,0.257,0.109,0.43v0.641
		c0,0.641-0.047,1.289-0.14,1.942c-0.094,0.654-0.23,1.291-0.41,1.912c-0.181,0.62-0.404,1.215-0.671,1.781
		c-0.268,0.567-0.561,1.099-0.881,1.592c0.467,0.36,0.871,0.661,1.211,0.901c0.341,0.24,0.631,0.43,0.871,0.57
		c0.24,0.14,0.44,0.237,0.601,0.29c0.16,0.054,0.293,0.08,0.4,0.08c0.146,0,0.283,0,0.41,0s0.23,0.047,0.311,0.14
		c0.08,0.094,0.14,0.261,0.181,0.501c0.039,0.24,0.06,0.594,0.06,1.062c0,0.493-0.01,0.881-0.03,1.16
		c-0.02,0.281-0.054,0.488-0.1,0.621c-0.047,0.134-0.127,0.244-0.24,0.33c-0.114,0.087-0.304,0.167-0.57,0.24
		c-0.268,0.073-0.588,0.11-0.961,0.11c-0.294,0-0.598-0.037-0.911-0.11c-0.314-0.073-0.678-0.214-1.091-0.42
		c-0.414-0.207-0.895-0.48-1.441-0.821c-0.548-0.34-1.182-0.777-1.902-1.312c-0.628,0.428-1.274,0.812-1.941,1.151
		c-0.668,0.341-1.365,0.624-2.093,0.851c-0.728,0.228-1.479,0.4-2.252,0.521c-0.774,0.119-1.602,0.18-2.482,0.18
		c-0.868,0-1.715-0.067-2.542-0.2c-0.828-0.134-1.605-0.337-2.333-0.61s-1.392-0.617-1.991-1.031
		c-0.602-0.413-1.115-0.904-1.542-1.472c-0.428-0.566-0.761-1.214-1.001-1.941S323.065,67.369,323.065,66.488z M328.511,66.209
		c0,0.573,0.106,1.101,0.32,1.581c0.213,0.48,0.521,0.895,0.921,1.241c0.4,0.348,0.897,0.617,1.491,0.811
		c0.594,0.194,1.278,0.291,2.052,0.291c0.4,0,0.798-0.037,1.191-0.11s0.781-0.174,1.161-0.301c0.381-0.126,0.741-0.28,1.081-0.46
		c0.341-0.181,0.657-0.377,0.951-0.591c-0.601-0.48-1.205-0.991-1.812-1.531c-0.607-0.541-1.198-1.084-1.772-1.632
		c-0.573-0.547-1.124-1.091-1.651-1.632c-0.527-0.54-0.998-1.051-1.411-1.531c-0.468,0.294-0.857,0.598-1.171,0.911
		c-0.314,0.313-0.571,0.631-0.771,0.951c-0.201,0.32-0.348,0.647-0.441,0.98C328.558,65.521,328.511,65.861,328.511,66.209z
		 M330.753,52.976c0,0.28,0.047,0.57,0.14,0.871c0.094,0.3,0.224,0.614,0.391,0.94c0.167,0.328,0.377,0.674,0.631,1.041
		c0.253,0.367,0.541,0.765,0.861,1.191c0.787-0.427,1.444-0.82,1.972-1.181c0.526-0.36,0.95-0.71,1.271-1.051
		c0.32-0.34,0.548-0.681,0.682-1.021c0.133-0.341,0.199-0.691,0.199-1.051c0-0.32-0.06-0.621-0.18-0.901s-0.308-0.523-0.561-0.73
		c-0.254-0.207-0.567-0.371-0.941-0.491c-0.373-0.12-0.813-0.18-1.32-0.18c-0.561,0-1.038,0.063-1.432,0.19
		c-0.395,0.127-0.718,0.307-0.971,0.54c-0.254,0.234-0.441,0.508-0.561,0.821C330.813,52.278,330.753,52.615,330.753,52.976z"/>
	<path fill="#66C569" d="M378.681,69.792c0,0.334-0.01,0.617-0.03,0.851c-0.02,0.234-0.05,0.435-0.09,0.601
		c-0.04,0.167-0.094,0.311-0.16,0.431c-0.067,0.12-0.174,0.257-0.32,0.41c-0.147,0.154-0.431,0.351-0.851,0.591
		c-0.421,0.24-0.935,0.471-1.542,0.69c-0.607,0.221-1.301,0.403-2.082,0.551c-0.78,0.146-1.625,0.221-2.532,0.221
		c-1.775,0-3.377-0.274-4.805-0.821c-1.429-0.547-2.643-1.364-3.644-2.452s-1.769-2.445-2.303-4.074
		c-0.533-1.628-0.801-3.523-0.801-5.686c0-2.202,0.294-4.157,0.881-5.866c0.588-1.708,1.408-3.143,2.463-4.304
		c1.054-1.161,2.318-2.042,3.794-2.643c1.475-0.601,3.1-0.901,4.874-0.901c0.721,0,1.415,0.06,2.082,0.18
		c0.668,0.12,1.285,0.277,1.853,0.471c0.566,0.193,1.077,0.417,1.531,0.67c0.453,0.254,0.771,0.47,0.951,0.651
		c0.18,0.18,0.303,0.33,0.37,0.45c0.066,0.12,0.12,0.274,0.16,0.46c0.04,0.187,0.07,0.407,0.09,0.661
		c0.021,0.254,0.03,0.567,0.03,0.941c0,0.4-0.014,0.741-0.04,1.021c-0.027,0.28-0.073,0.507-0.141,0.681
		c-0.066,0.174-0.146,0.3-0.24,0.38c-0.093,0.08-0.199,0.12-0.32,0.12c-0.199,0-0.453-0.117-0.76-0.35
		c-0.308-0.233-0.705-0.494-1.191-0.781c-0.487-0.287-1.068-0.547-1.742-0.78s-1.479-0.351-2.412-0.351
		c-1.028,0-1.945,0.21-2.753,0.631c-0.808,0.42-1.495,1.021-2.062,1.802c-0.567,0.78-0.998,1.725-1.291,2.833
		c-0.294,1.107-0.441,2.355-0.441,3.743c0,1.521,0.157,2.84,0.471,3.954s0.761,2.031,1.342,2.752
		c0.58,0.721,1.281,1.259,2.102,1.612c0.821,0.354,1.745,0.53,2.773,0.53c0.934,0,1.741-0.11,2.422-0.33
		c0.681-0.221,1.265-0.464,1.752-0.73c0.486-0.268,0.887-0.508,1.201-0.721c0.313-0.214,0.557-0.32,0.73-0.32
		c0.133,0,0.24,0.026,0.32,0.08c0.08,0.053,0.146,0.16,0.2,0.32c0.053,0.16,0.093,0.384,0.12,0.67
		C378.667,68.928,378.681,69.312,378.681,69.792z"/>
	<path fill="#66C569" d="M405.809,60.463c0,2.149-0.268,4.071-0.801,5.766c-0.534,1.695-1.329,3.133-2.383,4.314
		c-1.055,1.181-2.359,2.082-3.914,2.702c-1.555,0.621-3.354,0.931-5.395,0.931c-2.016,0-3.774-0.264-5.275-0.79
		c-1.502-0.527-2.753-1.331-3.754-2.413c-1.001-1.08-1.752-2.455-2.252-4.123c-0.501-1.669-0.751-3.645-0.751-5.926
		c0-2.096,0.267-3.98,0.801-5.656c0.533-1.674,1.328-3.099,2.382-4.274c1.055-1.174,2.359-2.075,3.914-2.703
		c1.555-0.627,3.36-0.941,5.416-0.941c1.961,0,3.693,0.26,5.194,0.781c1.502,0.521,2.756,1.321,3.764,2.402s1.769,2.446,2.282,4.094
		C405.551,56.275,405.809,58.221,405.809,60.463z M400.283,60.743c0-1.361-0.107-2.599-0.32-3.714
		c-0.214-1.114-0.578-2.068-1.092-2.862s-1.198-1.408-2.052-1.842c-0.854-0.434-1.922-0.651-3.203-0.651
		c-1.295,0-2.376,0.244-3.243,0.731c-0.868,0.487-1.568,1.138-2.102,1.952c-0.534,0.814-0.911,1.765-1.132,2.853
		c-0.22,1.088-0.33,2.239-0.33,3.453c0,1.415,0.106,2.687,0.32,3.813c0.213,1.128,0.573,2.092,1.081,2.893
		c0.507,0.801,1.188,1.412,2.042,1.832c0.854,0.421,1.929,0.631,3.224,0.631c1.294,0,2.375-0.24,3.242-0.721
		c0.868-0.48,1.568-1.134,2.103-1.962c0.533-0.827,0.911-1.792,1.131-2.893C400.173,63.155,400.283,61.984,400.283,60.743z"/>
	<path fill="#66C569" d="M432.082,60.383c0,2.376-0.311,4.408-0.931,6.096c-0.621,1.688-1.512,3.066-2.673,4.135
		c-1.161,1.067-2.572,1.852-4.234,2.352c-1.661,0.501-3.641,0.751-5.936,0.751h-6.186c-0.441,0-0.812-0.13-1.111-0.391
		c-0.301-0.26-0.451-0.684-0.451-1.271V49.472c0-0.587,0.15-1.011,0.451-1.271c0.3-0.261,0.67-0.391,1.111-0.391h6.646
		c2.309,0,4.267,0.271,5.875,0.811c1.608,0.541,2.963,1.342,4.064,2.402c1.101,1.062,1.938,2.373,2.512,3.934
		C431.795,56.52,432.082,58.328,432.082,60.383z M426.637,60.563c0-1.228-0.144-2.368-0.431-3.423
		c-0.287-1.054-0.747-1.968-1.381-2.743c-0.635-0.774-1.448-1.378-2.442-1.812c-0.995-0.433-2.3-0.65-3.914-0.65h-2.662v17.617
		h2.742c1.441,0,2.655-0.187,3.644-0.561c0.987-0.373,1.812-0.938,2.473-1.691c0.66-0.754,1.154-1.692,1.481-2.813
		C426.473,63.365,426.637,62.058,426.637,60.563z"/>
	<path fill="#66C569" d="M452.089,71.654c0,0.387-0.017,0.71-0.05,0.971c-0.034,0.26-0.084,0.471-0.15,0.631
		c-0.067,0.16-0.15,0.276-0.25,0.35c-0.101,0.074-0.211,0.11-0.33,0.11h-13.014c-0.439,0-0.811-0.13-1.11-0.391
		c-0.301-0.26-0.45-0.684-0.45-1.271V49.472c0-0.587,0.149-1.011,0.45-1.271c0.3-0.261,0.671-0.391,1.11-0.391h12.934
		c0.119,0,0.227,0.034,0.32,0.1c0.093,0.067,0.173,0.184,0.24,0.35c0.066,0.167,0.116,0.381,0.149,0.641
		c0.033,0.261,0.05,0.591,0.05,0.991c0,0.374-0.017,0.69-0.05,0.951c-0.033,0.26-0.083,0.47-0.149,0.63
		c-0.067,0.16-0.147,0.277-0.24,0.35c-0.094,0.074-0.201,0.11-0.32,0.11h-9.25v6.326h7.828c0.12,0,0.23,0.037,0.33,0.11
		c0.101,0.073,0.184,0.187,0.25,0.34c0.067,0.154,0.117,0.36,0.15,0.621c0.033,0.26,0.051,0.577,0.051,0.951
		c0,0.387-0.018,0.707-0.051,0.961c-0.033,0.253-0.083,0.457-0.15,0.61c-0.066,0.153-0.149,0.264-0.25,0.33
		c-0.1,0.067-0.21,0.101-0.33,0.101h-7.828v7.307h9.33c0.119,0,0.229,0.037,0.33,0.11c0.1,0.073,0.183,0.19,0.25,0.351
		c0.066,0.16,0.116,0.37,0.15,0.63C452.072,70.943,452.089,71.267,452.089,71.654z"/>
</g>
<g>
	<path fill="#6D6E70" d="M145.68,35.346c0.16,0.48,0.26,0.861,0.3,1.141s-0.014,0.49-0.16,0.631c-0.147,0.14-0.407,0.227-0.781,0.26
		c-0.374,0.033-0.888,0.05-1.542,0.05c-0.681,0-1.211-0.01-1.591-0.03c-0.381-0.021-0.671-0.061-0.871-0.12
		c-0.2-0.061-0.34-0.144-0.42-0.25c-0.08-0.106-0.147-0.247-0.2-0.42l-1.742-5.205h-9.729l-1.642,5.065
		c-0.054,0.187-0.124,0.344-0.21,0.47c-0.087,0.127-0.228,0.228-0.421,0.301c-0.193,0.073-0.467,0.123-0.82,0.15
		c-0.354,0.026-0.818,0.04-1.392,0.04c-0.614,0-1.095-0.02-1.441-0.06c-0.347-0.04-0.587-0.137-0.721-0.29
		c-0.134-0.153-0.18-0.371-0.14-0.651s0.14-0.654,0.3-1.121l7.988-22.982c0.08-0.227,0.173-0.411,0.28-0.55
		c0.106-0.141,0.277-0.247,0.51-0.32s0.557-0.12,0.971-0.141c0.414-0.02,0.961-0.03,1.642-0.03c0.787,0,1.415,0.01,1.882,0.03
		c0.467,0.021,0.831,0.067,1.091,0.141c0.26,0.073,0.447,0.184,0.561,0.33c0.113,0.147,0.21,0.347,0.29,0.601L145.68,35.346z
		 M133.788,16.348h-0.02l-3.664,11.011h7.347L133.788,16.348z"/>
</g>
<g>
	<path fill="#6D6E70" d="M171.192,15.427c0,0.387-0.017,0.721-0.05,1.001s-0.08,0.504-0.14,0.671
		c-0.061,0.167-0.134,0.284-0.221,0.35c-0.087,0.067-0.19,0.1-0.31,0.1c-0.174,0-0.454-0.12-0.841-0.36
		c-0.387-0.24-0.901-0.5-1.542-0.781s-1.405-0.541-2.292-0.781c-0.888-0.24-1.919-0.36-3.093-0.36c-1.255,0-2.389,0.217-3.403,0.65
		c-1.015,0.434-1.882,1.048-2.603,1.842c-0.721,0.794-1.275,1.749-1.662,2.863c-0.387,1.114-0.581,2.346-0.581,3.693
		c0,1.481,0.197,2.786,0.59,3.914s0.944,2.072,1.652,2.833c0.707,0.761,1.558,1.335,2.552,1.722
		c0.994,0.387,2.092,0.581,3.293,0.581c0.587,0,1.167-0.066,1.742-0.2c0.574-0.133,1.107-0.333,1.602-0.601v-6.006h-4.905
		c-0.24,0-0.427-0.15-0.561-0.45c-0.134-0.301-0.2-0.811-0.2-1.532c0-0.374,0.017-0.687,0.05-0.941
		c0.033-0.253,0.083-0.457,0.15-0.61c0.066-0.153,0.146-0.267,0.24-0.341c0.093-0.073,0.2-0.11,0.32-0.11h8.749
		c0.213,0,0.403,0.037,0.57,0.11c0.167,0.074,0.313,0.184,0.44,0.331c0.127,0.147,0.224,0.324,0.291,0.531
		c0.066,0.207,0.1,0.444,0.1,0.71v10.31c0,0.4-0.07,0.751-0.21,1.051c-0.141,0.301-0.428,0.538-0.861,0.711
		c-0.434,0.174-0.971,0.354-1.611,0.541c-0.641,0.187-1.305,0.347-1.992,0.48s-1.381,0.233-2.082,0.3
		c-0.7,0.066-1.405,0.1-2.112,0.1c-2.069,0-3.921-0.297-5.555-0.891c-1.635-0.593-3.02-1.454-4.154-2.582
		c-1.135-1.128-2.002-2.503-2.603-4.124c-0.601-1.622-0.901-3.46-0.901-5.516c0-2.122,0.32-4.027,0.961-5.716
		c0.641-1.688,1.548-3.123,2.723-4.304c1.174-1.182,2.592-2.085,4.254-2.713c1.661-0.627,3.513-0.941,5.555-0.941
		c1.121,0,2.142,0.077,3.063,0.23c0.921,0.154,1.725,0.341,2.412,0.561c0.688,0.221,1.258,0.458,1.712,0.711
		c0.454,0.254,0.771,0.474,0.951,0.661c0.18,0.187,0.31,0.451,0.39,0.791C171.152,14.256,171.192,14.76,171.192,15.427z"/>
	<path fill="#6D6E70" d="M183.38,36.587c0,0.134-0.043,0.254-0.13,0.36c-0.087,0.107-0.23,0.194-0.43,0.26
		c-0.2,0.067-0.467,0.12-0.801,0.16c-0.334,0.04-0.761,0.06-1.281,0.06c-0.507,0-0.931-0.02-1.271-0.06
		c-0.341-0.04-0.611-0.093-0.811-0.16c-0.2-0.066-0.344-0.153-0.43-0.26c-0.087-0.106-0.13-0.227-0.13-0.36V12.124
		c0-0.133,0.043-0.253,0.13-0.36c0.086-0.106,0.233-0.193,0.44-0.26c0.207-0.066,0.477-0.12,0.811-0.16
		c0.333-0.04,0.754-0.06,1.261-0.06c0.521,0,0.947,0.02,1.281,0.06c0.333,0.04,0.601,0.094,0.801,0.16
		c0.2,0.067,0.343,0.154,0.43,0.26c0.087,0.107,0.13,0.227,0.13,0.36V36.587z"/>
	<path fill="#6D6E70" d="M204.859,35.106c0,0.4-0.017,0.738-0.05,1.011s-0.083,0.5-0.15,0.681c-0.067,0.18-0.15,0.31-0.25,0.39
		c-0.1,0.08-0.217,0.12-0.35,0.12h-11.872c-0.44,0-0.811-0.13-1.111-0.39c-0.3-0.261-0.45-0.684-0.45-1.271V12.124
		c0-0.133,0.043-0.253,0.13-0.36c0.087-0.106,0.23-0.193,0.431-0.26c0.2-0.066,0.471-0.12,0.811-0.16
		c0.341-0.04,0.764-0.06,1.271-0.06c0.521,0,0.947,0.02,1.281,0.06c0.333,0.04,0.601,0.094,0.801,0.16
		c0.2,0.067,0.343,0.154,0.431,0.26c0.086,0.107,0.13,0.227,0.13,0.36v20.84h8.148c0.133,0,0.25,0.037,0.35,0.11
		c0.101,0.073,0.184,0.193,0.25,0.36c0.066,0.167,0.117,0.387,0.15,0.66C204.842,34.369,204.859,34.706,204.859,35.106z"/>
</g>
<g>
	<path fill="#6D6E70" d="M224.971,35.246c0,0.387-0.017,0.711-0.05,0.971c-0.034,0.261-0.084,0.471-0.15,0.631
		c-0.067,0.16-0.15,0.277-0.25,0.351c-0.101,0.073-0.21,0.11-0.331,0.11h-13.013c-0.44,0-0.811-0.13-1.111-0.39
		c-0.301-0.261-0.451-0.684-0.451-1.271V13.064c0-0.587,0.15-1.011,0.451-1.271c0.3-0.26,0.67-0.39,1.111-0.39h12.933
		c0.12,0,0.227,0.034,0.32,0.1c0.093,0.067,0.173,0.184,0.24,0.351c0.066,0.167,0.117,0.38,0.15,0.641
		c0.033,0.26,0.05,0.59,0.05,0.991c0,0.374-0.017,0.691-0.05,0.951c-0.033,0.261-0.083,0.471-0.15,0.631
		c-0.067,0.16-0.147,0.277-0.24,0.351c-0.094,0.073-0.2,0.11-0.32,0.11h-9.249v6.326h7.828c0.12,0,0.23,0.037,0.33,0.11
		c0.101,0.074,0.184,0.188,0.25,0.341c0.066,0.153,0.117,0.36,0.15,0.62c0.033,0.261,0.05,0.578,0.05,0.951
		c0,0.387-0.017,0.708-0.05,0.961c-0.033,0.254-0.083,0.458-0.15,0.61c-0.067,0.154-0.15,0.264-0.25,0.331
		c-0.1,0.067-0.21,0.1-0.33,0.1h-7.828v7.307h9.329c0.12,0,0.23,0.037,0.331,0.11c0.1,0.074,0.183,0.19,0.25,0.351
		c0.066,0.16,0.117,0.37,0.15,0.631C224.954,34.535,224.971,34.859,224.971,35.246z"/>
</g>
<g>
	<defs>
		<polygon id="SVGID_3_" points="7,114 506.672,115 506.672,-3.522 7,-4.522 		"/>
	</defs>
	<clipPath id="SVGID_4_">
		<use xlink:href="#SVGID_3_"  overflow="visible"/>
	</clipPath>
	<path clip-path="url(#SVGID_4_)" fill="#66CC66" d="M42.661,115c-9.15,0-21.9-2.11-21.9-15.891c0-9.063,1.2-18.002,1.2-25.449
		c0-4.718-0.45-10.554-13.65-11.298v-3.601c13.2-0.745,13.65-6.58,13.65-11.297c0-7.573-1.2-16.512-1.2-25.45
		C20.761,7.614,33.36,6,42.661,6h1.746h46.74c0,0,12,0,11.972,12l-0.194,85c0,0-0.028,12-12.028,12H40.253"/>
	<path clip-path="url(#SVGID_4_)" fill="#FFFFFF" d="M74.775,64.86c-0.511,2.574-1.388,4.823-2.628,6.746
		c-1.242,1.924-2.87,3.443-4.886,4.561c-2.017,1.116-4.529,1.675-7.538,1.675c-3.009,0-5.506-0.489-7.491-1.466
		c-1.985-0.978-3.567-2.396-4.746-4.257c-1.179-1.862-2.017-4.11-2.512-6.747c-0.497-2.636-0.745-5.614-0.745-8.935
		c0-2.791,0.256-5.451,0.768-7.979c0.512-2.528,1.388-4.738,2.629-6.631c1.24-1.891,2.869-3.396,4.885-4.513
		c2.016-1.117,4.529-1.675,7.538-1.675c2.978,0,5.459,0.504,7.445,1.512c1.984,1.008,3.574,2.436,4.769,4.281
		c1.194,1.846,2.039,4.056,2.536,6.63c0.495,2.575,0.744,5.429,0.744,8.561C75.543,59.54,75.288,62.286,74.775,64.86 M93.83,89.311
		c-0.156-0.791-0.403-1.349-0.744-1.675c-0.342-0.326-0.815-0.59-1.42-0.791c-0.604-0.201-1.411-0.519-2.419-0.954
		c-1.008-0.434-2.257-1.085-3.746-1.954c-1.489-0.867-3.195-2.14-5.118-3.814c1.272-1.272,2.404-2.746,3.397-4.421
		c0.992-1.675,1.83-3.521,2.512-5.537s1.202-4.211,1.559-6.583c0.356-2.373,0.535-4.909,0.535-7.608
		c0-5.211-0.613-9.725-1.838-13.54c-1.226-3.815-3.024-6.971-5.397-9.469c-2.373-2.496-5.289-4.35-8.748-5.56
		s-7.437-1.814-11.934-1.814c-4.777,0-8.973,0.729-12.586,2.186c-3.614,1.459-6.647,3.545-9.097,6.259
		c-2.451,2.714-4.296,6.018-5.537,9.91c-1.241,3.893-1.861,8.275-1.861,13.145c0,5.367,0.582,9.996,1.745,13.889
		c1.163,3.894,2.908,7.096,5.234,9.608c2.327,2.512,5.235,4.366,8.725,5.56c3.489,1.194,7.576,1.791,12.26,1.791
		c2.481,0,4.738-0.239,6.77-0.721c2.031-0.479,3.761-1.047,5.188-1.698c1.706,1.954,3.559,3.684,5.56,5.188
		c2.001,1.504,3.962,2.775,5.886,3.814c1.923,1.039,3.714,1.839,5.374,2.396c1.659,0.559,3.001,0.838,4.025,0.838
		c0.248,0,0.481-0.055,0.698-0.163s0.419-0.349,0.605-0.721s0.333-0.9,0.442-1.582c0.108-0.684,0.163-1.582,0.163-2.699
		C94.063,91.195,93.984,90.102,93.83,89.311"/>
	<g clip-path="url(#SVGID_4_)">
		<defs>
			<rect id="SVGID_5_" x="120.016" y="81.108" width="156.113" height="31.05"/>
		</defs>
		<clipPath id="SVGID_6_">
			<use xlink:href="#SVGID_5_"  overflow="visible"/>
		</clipPath>
		<path clip-path="url(#SVGID_6_)" fill="#6D6E70" d="M275.607,83.53c0.24-0.48,0.4-0.86,0.48-1.141
			c0.08-0.281,0.043-0.491-0.109-0.631c-0.154-0.14-0.441-0.228-0.861-0.26c-0.42-0.034-1.012-0.051-1.772-0.051
			c-0.573,0-1.034,0.014-1.381,0.04c-0.347,0.027-0.621,0.08-0.821,0.16c-0.199,0.08-0.35,0.184-0.449,0.311
			c-0.101,0.127-0.185,0.297-0.25,0.511l-2.844,6.326c-0.254,0.614-0.514,1.261-0.781,1.941c-0.267,0.681-0.526,1.382-0.781,2.103
			h-0.039c-0.28-0.748-0.557-1.462-0.831-2.143c-0.272-0.681-0.55-1.327-0.83-1.941l-2.884-6.366
			c-0.094-0.187-0.189-0.341-0.291-0.461c-0.1-0.12-0.256-0.217-0.469-0.29c-0.215-0.073-0.504-0.123-0.871-0.15
			c-0.367-0.026-0.858-0.04-1.472-0.04c-0.733,0-1.308,0.017-1.722,0.051c-0.414,0.032-0.697,0.12-0.852,0.26
			c-0.152,0.14-0.192,0.347-0.119,0.62c0.072,0.273,0.236,0.658,0.49,1.151l7.088,14.113v9.109c0,0.134,0.039,0.254,0.119,0.36
			c0.08,0.107,0.223,0.193,0.43,0.261c0.207,0.066,0.478,0.12,0.812,0.16c0.333,0.039,0.761,0.06,1.281,0.06
			c0.507,0,0.931-0.021,1.271-0.06c0.342-0.04,0.611-0.094,0.812-0.16c0.2-0.067,0.344-0.153,0.431-0.261
			c0.086-0.106,0.131-0.227,0.131-0.36v-9.109L275.607,83.53z M253.336,82.71c-0.034-0.28-0.084-0.504-0.15-0.671
			s-0.15-0.287-0.251-0.36c-0.1-0.073-0.21-0.11-0.329-0.11h-18.259c-0.133,0-0.247,0.037-0.34,0.11
			c-0.095,0.073-0.174,0.193-0.24,0.36c-0.067,0.167-0.116,0.391-0.149,0.671c-0.034,0.279-0.051,0.62-0.051,1.021
			c0,0.388,0.017,0.717,0.051,0.991c0.033,0.273,0.082,0.494,0.149,0.66c0.066,0.167,0.146,0.291,0.24,0.371
			c0.093,0.08,0.207,0.12,0.34,0.12h6.487v20.88c0,0.134,0.043,0.254,0.13,0.36c0.086,0.107,0.229,0.193,0.431,0.261
			c0.199,0.066,0.471,0.12,0.811,0.16c0.34,0.039,0.764,0.06,1.271,0.06s0.931-0.021,1.271-0.06c0.342-0.04,0.611-0.094,0.812-0.16
			c0.2-0.067,0.345-0.153,0.431-0.261c0.086-0.106,0.131-0.227,0.131-0.36v-20.88h6.486c0.119,0,0.229-0.04,0.329-0.12
			c0.101-0.08,0.185-0.204,0.251-0.371c0.066-0.166,0.116-0.387,0.15-0.66c0.033-0.274,0.05-0.604,0.05-0.991
			C253.386,83.33,253.369,82.989,253.336,82.71 M228.902,82.289c0-0.134-0.043-0.253-0.131-0.36
			c-0.086-0.107-0.229-0.193-0.431-0.26c-0.2-0.067-0.467-0.12-0.8-0.16c-0.334-0.04-0.762-0.061-1.282-0.061
			c-0.507,0-0.927,0.021-1.261,0.061s-0.604,0.093-0.811,0.16c-0.207,0.066-0.354,0.152-0.441,0.26
			c-0.086,0.107-0.129,0.227-0.129,0.36v24.464c0,0.134,0.043,0.254,0.129,0.36c0.088,0.107,0.23,0.193,0.431,0.261
			c0.201,0.066,0.472,0.12,0.812,0.16c0.34,0.039,0.764,0.06,1.271,0.06c0.521,0,0.948-0.021,1.282-0.06
			c0.333-0.04,0.6-0.094,0.8-0.16c0.201-0.067,0.345-0.153,0.431-0.261c0.088-0.106,0.131-0.227,0.131-0.36V82.289z
			 M218.861,104.261c-0.033-0.274-0.082-0.494-0.149-0.661s-0.149-0.287-0.25-0.36c-0.101-0.072-0.218-0.109-0.351-0.109h-8.147
			V82.289c0-0.134-0.044-0.253-0.131-0.36s-0.229-0.193-0.431-0.26c-0.199-0.067-0.467-0.12-0.801-0.16s-0.761-0.061-1.281-0.061
			c-0.506,0-0.931,0.021-1.271,0.061c-0.341,0.04-0.61,0.093-0.812,0.16c-0.199,0.066-0.344,0.152-0.43,0.26
			c-0.087,0.107-0.131,0.227-0.131,0.36v23.522c0,0.588,0.15,1.011,0.451,1.272c0.3,0.26,0.67,0.39,1.111,0.39h11.871
			c0.133,0,0.25-0.04,0.351-0.12s0.183-0.21,0.25-0.391s0.116-0.406,0.149-0.681c0.033-0.273,0.051-0.61,0.051-1.011
			S218.895,104.535,218.861,104.261 M191.225,97.523h-7.347l3.664-11.01h0.021L191.225,97.523z M191.445,82.55
			c-0.08-0.254-0.178-0.454-0.291-0.602c-0.112-0.146-0.299-0.257-0.56-0.329c-0.261-0.073-0.624-0.12-1.091-0.141
			c-0.469-0.02-1.096-0.03-1.882-0.03c-0.681,0-1.228,0.011-1.642,0.03c-0.414,0.021-0.738,0.067-0.972,0.141
			c-0.233,0.072-0.403,0.18-0.51,0.319c-0.107,0.141-0.2,0.324-0.281,0.551l-7.987,22.982c-0.16,0.467-0.261,0.841-0.301,1.121
			s0.008,0.497,0.141,0.651c0.133,0.152,0.373,0.25,0.721,0.29c0.347,0.039,0.828,0.06,1.441,0.06c0.573,0,1.037-0.013,1.392-0.04
			c0.353-0.027,0.627-0.077,0.821-0.15c0.192-0.072,0.332-0.173,0.42-0.3c0.086-0.127,0.156-0.284,0.209-0.471l1.643-5.065h9.729
			l1.742,5.205c0.053,0.174,0.12,0.314,0.2,0.421c0.08,0.107,0.222,0.19,0.421,0.25c0.2,0.061,0.49,0.101,0.871,0.12
			c0.381,0.021,0.91,0.03,1.592,0.03c0.653,0,1.168-0.017,1.541-0.05s0.633-0.12,0.78-0.26c0.147-0.141,0.201-0.352,0.161-0.632
			c-0.04-0.279-0.141-0.659-0.301-1.141L191.445,82.55z M172.107,82.289c0-0.134-0.041-0.253-0.121-0.36s-0.221-0.193-0.42-0.26
			c-0.201-0.067-0.465-0.12-0.791-0.16c-0.328-0.04-0.744-0.061-1.252-0.061c-0.507,0-0.931,0.021-1.271,0.061
			c-0.341,0.04-0.611,0.093-0.812,0.16c-0.199,0.066-0.34,0.152-0.42,0.26s-0.119,0.227-0.119,0.36v15.596
			c0,0.907-0.125,1.718-0.371,2.432c-0.248,0.714-0.598,1.315-1.051,1.803c-0.455,0.486-1.009,0.856-1.662,1.11
			c-0.654,0.254-1.395,0.38-2.223,0.38c-0.814,0-1.551-0.123-2.212-0.37c-0.66-0.246-1.228-0.616-1.701-1.11
			s-0.838-1.118-1.092-1.872c-0.253-0.754-0.38-1.646-0.38-2.673V82.289c0-0.134-0.043-0.253-0.13-0.36s-0.23-0.193-0.431-0.26
			c-0.201-0.067-0.468-0.12-0.801-0.16c-0.334-0.04-0.754-0.061-1.261-0.061c-0.521,0-0.948,0.021-1.282,0.061
			c-0.333,0.04-0.604,0.093-0.811,0.16c-0.207,0.066-0.35,0.152-0.43,0.26s-0.121,0.227-0.121,0.36v15.756
			c0,1.654,0.237,3.1,0.711,4.334s1.158,2.266,2.053,3.093c0.895,0.828,1.988,1.445,3.283,1.852c1.293,0.407,2.756,0.61,4.384,0.61
			c1.735,0,3.271-0.227,4.604-0.68c1.334-0.454,2.455-1.114,3.363-1.982c0.907-0.868,1.596-1.929,2.063-3.183
			c0.467-1.255,0.701-2.676,0.701-4.265V82.289z M138.684,98.005c-0.22,1.107-0.597,2.075-1.131,2.902
			c-0.533,0.827-1.234,1.481-2.102,1.962c-0.868,0.48-1.949,0.721-3.243,0.721c-1.295,0-2.37-0.21-3.223-0.63
			c-0.855-0.421-1.535-1.031-2.042-1.832c-0.508-0.801-0.868-1.77-1.082-2.903c-0.213-1.134-0.32-2.416-0.32-3.844
			c0-1.201,0.11-2.345,0.331-3.434c0.22-1.088,0.597-2.038,1.131-2.853c0.533-0.814,1.234-1.461,2.102-1.942
			c0.867-0.479,1.948-0.721,3.243-0.721c1.281,0,2.35,0.218,3.203,0.651s1.538,1.048,2.053,1.842
			c0.514,0.794,0.877,1.745,1.09,2.853c0.213,1.108,0.32,2.335,0.32,3.684C139.014,95.716,138.904,96.896,138.684,98.005
			 M146.882,108.524c-0.067-0.34-0.174-0.581-0.319-0.721c-0.147-0.14-0.352-0.253-0.611-0.34s-0.607-0.224-1.041-0.41
			c-0.435-0.187-0.971-0.467-1.611-0.841s-1.375-0.921-2.203-1.643c0.547-0.547,1.034-1.181,1.462-1.901
			c0.427-0.721,0.787-1.515,1.081-2.382c0.293-0.867,0.518-1.813,0.67-2.833c0.154-1.021,0.231-2.112,0.231-3.273
			c0-2.242-0.265-4.184-0.791-5.826c-0.527-1.641-1.302-2.999-2.322-4.074c-1.021-1.073-2.276-1.87-3.765-2.392
			c-1.487-0.52-3.199-0.781-5.134-0.781c-2.055,0-3.861,0.314-5.415,0.941c-1.555,0.628-2.86,1.524-3.914,2.693
			c-1.055,1.168-1.849,2.589-2.382,4.264c-0.534,1.675-0.801,3.56-0.801,5.655c0,2.31,0.25,4.302,0.751,5.976
			c0.5,1.675,1.251,3.053,2.252,4.134s2.252,1.879,3.753,2.394c1.502,0.513,3.26,0.77,5.276,0.77c1.067,0,2.038-0.103,2.912-0.31
			s1.618-0.45,2.233-0.731c0.732,0.841,1.53,1.585,2.392,2.233c0.86,0.646,1.705,1.193,2.532,1.641
			c0.828,0.447,1.598,0.791,2.313,1.031c0.713,0.24,1.291,0.361,1.73,0.361c0.107,0,0.207-0.024,0.302-0.071
			c0.093-0.046,0.18-0.15,0.26-0.311c0.08-0.159,0.144-0.387,0.19-0.68c0.047-0.294,0.07-0.681,0.07-1.162
			C146.982,109.336,146.949,108.864,146.882,108.524"/>
	</g>
</g>
</svg>
